PathFileType	4	(X/Y/Z)	./resultDataOpenSim/trcMotMarkerGrf/sub09/qtm-03-04.trc
DataRate	CameraRate	NumFrames	NumMarkers	Units	OrigDataRate	OrigDataStartFrame	OrigNumFrames
250.000000	250.000000	12	24	m	250.000000	235	469
Frame#	Time	L.Toe.Tip			R.Toe.Tip			L.Ankle.Lat			R.Ankle.Lat			L.Ankle.Med			R.Ankle.Med			L.Heel			R.Heel			L.Knee.Lat			R.Knee.Lat			L.Knee.Med			R.Knee.Med			L.Thigh.Upper			R.Thigh.Upper			L.ASIS			R.ASIS			V.Sacral			L.Acromium			R.Acromium			C7			L.Elbow			R.Elbow			L.Wrist.Lat			R.Wrist.Lat
		X1	Y1	Z1	X2	Y2	Z2	X3	Y3	Z3	X4	Y4	Z4	X5	Y5	Z5	X6	Y6	Z6	X7	Y7	Z7	X8	Y8	Z8	X9	Y9	Z9	X10	Y10	Z10	X11	Y11	Z11	X12	Y12	Z12	X13	Y13	Z13	X14	Y14	Z14	X15	Y15	Z15	X16	Y16	Z16	X17	Y17	Z17	X18	Y18	Z18	X19	Y19	Z19	X20	Y20	Z20	X21	Y21	Z21	X22	Y22	Z22	X23	Y23	Z23	X24	Y24	Z24

235	0.936	0.1436963	-0.010525439	0.026680679	0.27713823	0.10268972	0.15291379	-0.006262433	0.034957967	-0.0087227206	0.140173	0.15582361	0.16951899	0.021722978	0.05503718	0.084729359	0.17043857	0.18140354	0.076602084	-0.076021702	0.0078530593	0.040193241	0.071555041	0.14697954	0.11389937	0.080030598	0.44141036	-0.073021078	0.36175277	0.54089825	0.20691685	0.085813835	0.44396274	0.051755326	0.36371614	0.52699827	0.080964313	0.1224033	0.86312498	-0.13090866	0.13083613	0.87551027	0.2381496	0.21497759	0.94733123	-0.074225681	0.20409671	0.96073047	0.16689227	0.048230562	1.0083117	0.048080322	0.21284994	1.4047012	-0.10417173	0.17422737	1.411783	0.22275319	0.12828176	1.4585952	0.053022977	0.097707939	1.0481071	-0.17808691	0.0030794235	1.0934492	0.28612344	0.3210304	0.8913095	-0.17542111	0.085236992	0.83868104	0.33095499
236	0.94	0.14369524	-0.010554492	0.026650704	0.29697857	0.10210569	0.15272868	-0.0067651813	0.035687695	-0.0078733349	0.15828476	0.15134058	0.16924871	0.022435851	0.055681532	0.084903623	0.18811896	0.17781365	0.076310074	-0.076045181	0.0087969745	0.041023781	0.090819015	0.14055384	0.11320302	0.080304178	0.4419133	-0.072940646	0.36999847	0.54263542	0.20684969	0.08670543	0.44431311	0.051795044	0.37203082	0.52879052	0.081130808	0.12747446	0.86298686	-0.13104867	0.1366765	0.8754562	0.23834111	0.22074892	0.94706985	-0.074309757	0.20982257	0.9607225	0.16692516	0.053816389	1.0082184	0.047733992	0.21859194	1.4045317	-0.10390488	0.18026718	1.4115667	0.22307289	0.13419563	1.4584052	0.053372168	0.10508743	1.0471314	-0.17794927	0.0081358038	1.0937721	0.2857662	0.331016	0.89378006	-0.17451388	0.089582456	0.83870795	0.33176017
237	0.944	0.14371797	-0.010572824	0.026587949	0.31669888	0.10162011	0.15259777	-0.006982557	0.036319015	-0.0072336306	0.17657963	0.14693155	0.16892923	0.023211257	0.056315204	0.085060781	0.20588883	0.17427664	0.076070662	-0.075961855	0.0096614031	0.041887623	0.1100489	0.13425268	0.11256411	0.080691331	0.44241208	-0.072878164	0.37813951	0.54423993	0.2068185	0.08747291	0.44467052	0.051911258	0.3802032	0.53041547	0.081302954	0.13258782	0.8627974	-0.13108862	0.14250259	0.87534028	0.23853979	0.22654974	0.94674877	-0.07434175	0.21555787	0.96064912	0.16697814	0.059513191	1.0080055	0.047526069	0.22431239	1.4042963	-0.10363153	0.18632397	1.4113006	0.22338738	0.14014004	1.4581745	0.053836844	0.11260991	1.0460894	-0.17790332	0.013244179	1.0940335	0.28548793	0.34095744	0.89620399	-0.17361585	0.094043121	0.83868969	0.33256596
238	0.948	0.14375143	-0.01058834	0.026513197	0.33635427	0.1012299	0.15247398	-0.0070467016	0.036909093	-0.0066989317	0.19521155	0.14252828	0.16853437	0.023898368	0.056916205	0.085262286	0.22375705	0.17079486	0.075870065	-0.075806755	0.010484933	0.042737711	0.12910233	0.12814506	0.1121547	0.081248132	0.44290728	-0.072820086	0.38618132	0.5457425	0.20685624	0.088396199	0.44506372	0.051964884	0.38823076	0.5319005	0.081534039	0.13773249	0.86256371	-0.13101419	0.14831631	0.875167	0.23875052	0.23238546	0.94636988	-0.074320013	0.22129667	0.96050748	0.16704683	0.065343013	1.0076518	0.04753578	0.23002263	1.4039928	-0.10335638	0.19240429	1.4109778	0.22369427	0.14610196	1.45786	0.054297135	0.12029354	1.0449845	-0.17797834	0.018585317	1.0941844	0.2852398	0.35085397	0.89857883	-0.17272454	0.098580498	0.83861415	0.33335478
239	0.952	0.14378617	-0.010603899	0.026433142	0.35604562	0.10089595	0.15230104	-0.007054867	0.037502269	-0.0062132252	0.2142565	0.13809942	0.1680496	0.024472081	0.057487837	0.085497005	0.24172035	0.16737058	0.075673168	-0.075621396	0.011307546	0.043535619	0.14809672	0.12221093	0.11191421	0.082001667	0.44338692	-0.072762143	0.39409107	0.54713684	0.20695946	0.089616975	0.44549369	0.051886258	0.39610136	0.5332408	0.081852508	0.14289633	0.86227327	-0.13086771	0.15411825	0.87493711	0.23897241	0.23823133	0.94592517	-0.074263683	0.22703902	0.96029639	0.16712882	0.071320794	1.0071293	0.047724999	0.23574298	1.4036196	-0.10308402	0.19850437	1.4105933	0.22399312	0.15206915	1.4574243	0.054613592	0.1280144	1.0438322	-0.1780424	0.024151763	1.0942179	0.28500228	0.36070255	0.90090301	-0.17183944	0.10309238	0.83845727	0.33408449
240	0.956	0.14381075	-0.010620187	0.026351773	0.37580801	0.1005825	0.15207166	-0.007036974	0.038110336	-0.0057756721	0.23359847	0.13369901	0.16751458	0.024984479	0.058046911	0.08572531	0.25976508	0.16401497	0.075467843	-0.075423249	0.012149891	0.044262151	0.16724201	0.11639874	0.11165021	0.082919904	0.44382748	-0.072717587	0.40187427	0.54841465	0.20709714	0.091151952	0.44593667	0.051665781	0.4038177	0.53441021	0.082233739	0.1480736	0.86191235	-0.13069061	0.15990872	0.87465439	0.23920291	0.24403144	0.94539385	-0.074210997	0.23279131	0.96001736	0.16722475	0.077374333	1.0064755	0.047886046	0.24148403	1.4031782	-0.10281725	0.20461853	1.4101473	0.22428388	0.15804082	1.4568856	0.054781921	0.13562333	1.0426383	-0.17793686	0.029840258	1.0941539	0.28477951	0.3704997	0.90317509	-0.17096377	0.10741109	0.83818365	0.33468752
241	0.96	0.14380384	-0.010637101	0.026283471	0.39559135	0.10027185	0.1518237	-0.0069927339	0.038726792	-0.0054014976	0.2528978	0.1294481	0.16702423	0.025480334	0.058600971	0.085922333	0.27788562	0.1607417	0.075263605	-0.075221098	0.013011173	0.04489919	0.1866214	0.11070119	0.11126074	0.083919551	0.44421213	-0.072713856	0.40958203	0.54957793	0.2072441	0.092858316	0.44635887	0.051390593	0.41141437	0.53538731	0.082626478	0.15325546	0.86147401	-0.13051133	0.16568775	0.87432304	0.23944183	0.24974788	0.9447616	-0.074190101	0.23856161	0.95966909	0.16733463	0.083357318	1.0058036	0.047782108	0.24723908	1.4026756	-0.10256269	0.21074283	1.4096439	0.2245686	0.16402221	1.4562976	0.054926658	0.14313681	1.041395	-0.17768439	0.035577693	1.0940128	0.28458119	0.38024279	0.90539213	-0.17010145	0.11142316	0.83776806	0.33511995
242	0.964	0.14374302	-0.010652511	0.026248249	0.4153223	0.099959525	0.15159981	-0.0069207161	0.039345244	-0.0051013414	0.2718207	0.12544013	0.1666534	0.025967007	0.059141689	0.086081078	0.29608887	0.15755832	0.07506224	-0.075029105	0.013877197	0.045422144	0.20619005	0.10515405	0.11077087	0.084955101	0.44454987	-0.072763164	0.41720032	0.55060895	0.20742184	0.094418798	0.44672176	0.05127074	0.4189498	0.53616189	0.082979952	0.15843084	0.86096005	-0.13034095	0.17145525	0.87394402	0.23969163	0.25539768	0.94403721	-0.074192879	0.24435587	0.95924617	0.16745682	0.089208372	1.0051918	0.047444289	0.25299418	1.402122	-0.10233001	0.21686806	1.4090893	0.22485144	0.17000932	1.4556922	0.055142009	0.15072621	1.0400999	-0.17747002	0.041346253	1.0938049	0.28441483	0.38993041	0.90755016	-0.16925495	0.11523099	0.83722886	0.33542066
243	0.968	0.1436423	-0.010661643	0.026241163	0.43495988	0.099646611	0.15142426	-0.006820022	0.039960262	-0.0048768259	0.29033744	0.12167501	0.16639084	0.026429731	0.059656679	0.086200586	0.31438108	0.15446705	0.074854882	-0.07485925	0.014735601	0.045811996	0.22588085	0.099797785	0.1102314	0.086110991	0.444873	-0.072835207	0.42458911	0.55145605	0.20769035	0.095619633	0.44699632	0.051461929	0.42647579	0.53674076	0.083253819	0.16359049	0.86038022	-0.13017228	0.17721695	0.8735174	0.23995774	0.26101442	0.94323718	-0.074196121	0.25017766	0.9587443	0.16758967	0.095006065	1.0046161	0.047145259	0.25874698	1.4015222	-0.10211986	0.22298507	1.4084887	0.2251359	0.17598884	1.455072	0.055425975	0.1584968	1.0387627	-0.17739974	0.047151859	1.0935338	0.28428614	0.39956248	0.90964633	-0.16842573	0.11913353	0.83662855	0.33570263
244	0.972	0.14357449	-0.010659159	0.026208879	0.45451294	0.099331741	0.15130606	-0.0066842665	0.04056541	-0.0047201257	0.30873327	0.11809234	0.16616063	0.026858681	0.060140751	0.08627872	0.33276075	0.15147215	0.074633879	-0.074706368	0.015586368	0.046069739	0.24565331	0.094656859	0.10966028	0.087531128	0.44520361	-0.072890409	0.43163172	0.55207169	0.20806749	0.096670418	0.44718814	0.05185345	0.43405296	0.53716065	0.083383704	0.16871921	0.85974988	-0.12999104	0.18297715	0.87304016	0.24024251	0.26660245	0.94236591	-0.074191253	0.2560318	0.95816452	0.16773211	0.10083735	1.0040175	0.047066341	0.26451505	1.4008709	-0.10191555	0.22909777	1.4078424	0.22542336	0.1819622	1.4544262	0.055734705	0.16635239	1.0373924	-0.17736279	0.05299658	1.0932009	0.28420092	0.40913868	0.91167889	-0.16761461	0.12338008	0.83602361	0.33606405
245	0.976	0.14361013	-0.010645586	0.026094888	0.47402756	0.099019055	0.15124939	-0.0065053224	0.041160071	-0.0046174278	0.32731078	0.11464774	0.16589809	0.027258886	0.060596721	0.08631255	0.35122323	0.14858649	0.074393432	-0.074544171	0.016434245	0.046216671	0.26549754	0.089733977	0.10904666	0.089257434	0.4455211	-0.072929501	0.43839771	0.55245775	0.20848158	0.098007715	0.4473307	0.052183077	0.44180006	0.5374699	0.083235878	0.17379517	0.85908451	-0.12978476	0.18872568	0.87250291	0.24054022	0.27217107	0.94142917	-0.074167334	0.2619243	0.95751137	0.16788417	0.10671134	1.0033685	0.047180071	0.27032172	1.4001601	-0.10169576	0.23521629	1.4071501	0.22571273	0.1879529	1.4537363	0.056035078	0.17412967	1.0359921	-0.17718389	0.058872467	1.0928058	0.28416566	0.4186582	0.91364615	-0.16682064	0.12798878	0.83542371	0.33651977
246	0.98	0.14373276	-0.010633191	0.02591477	0.49354059	0.098745008	0.15126313	-0.0062814885	0.041748677	-0.0045539735	0.34615084	0.11134198	0.16558611	0.027640875	0.061030879	0.086301901	0.36976528	0.14583099	0.074125454	-0.074338284	0.01727659	0.046281791	0.2854395	0.085015178	0.1083558	0.091222949	0.44578019	-0.072976453	0.44505539	0.55265842	0.20883417	0.099854064	0.44744665	0.052307325	0.44977975	0.53767326	0.082748842	0.1788052	0.8583932	-0.1295409	0.19445339	0.87189812	0.24084632	0.27776903	0.94045233	-0.074094467	0.26785465	0.95678687	0.16804559	0.11260029	1.0026693	0.047391643	0.2761772	1.3993899	-0.10145322	0.24134048	1.4064124	0.22599979	0.1939777	1.4529891	0.056319973	0.18179552	1.0345603	-0.17683175	0.064770101	1.0923452	0.28418454	0.42812153	0.91554647	-0.16604165	0.13282015	0.83480505	0.3370224
